<svg width="23" height="23" viewBox="0 0 23 23" fill="none" xmlns="http://www.w3.org/2000/svg">
<path d="M8.45007 16.1833C8.45007 16.9126 8.16034 17.6121 7.64462 18.1278C7.12889 18.6435 6.42942 18.9333 5.70007 18.9333C4.97073 18.9333 4.27125 18.6435 3.75553 18.1278C3.2398 17.6121 2.95007 16.9126 2.95007 16.1833C2.95007 15.4539 3.2398 14.7544 3.75553 14.2387C4.27125 13.723 4.97073 13.4333 5.70007 13.4333C6.42942 13.4333 7.12889 13.723 7.64462 14.2387C8.16034 14.7544 8.45007 15.4539 8.45007 16.1833ZM8.45007 16.1833V4.2666H17.6167V16.1833M17.6167 16.1833C17.6167 16.9126 17.327 17.6121 16.8113 18.1278C16.2956 18.6435 15.5961 18.9333 14.8667 18.9333C14.1374 18.9333 13.4379 18.6435 12.9222 18.1278C12.4065 17.6121 12.1167 16.9126 12.1167 16.1833C12.1167 15.4539 12.4065 14.7544 12.9222 14.2387C13.4379 13.723 14.1374 13.4333 14.8667 13.4333C15.5961 13.4333 16.2956 13.723 16.8113 14.2387C17.327 14.7544 17.6167 15.4539 17.6167 16.1833ZM8.45007 7.93327H17.6167" stroke="#EECE47" stroke-width="2" stroke-linecap="round" stroke-linejoin="round"/>
</svg>
