<svg width="28" height="28" viewBox="0 0 28 28" fill="none" xmlns="http://www.w3.org/2000/svg">
<path d="M11.6667 17.5C11.6667 17.8094 11.7896 18.1062 12.0084 18.325C12.2272 18.5438 12.5239 18.6667 12.8333 18.6667H15.1667C15.4761 18.6667 15.7728 18.5438 15.9916 18.325C16.2104 18.1062 16.3333 17.8094 16.3333 17.5V15.1667C16.3333 14.8573 16.2104 14.5605 15.9916 14.3417C15.7728 14.1229 15.4761 14 15.1667 14H12.8333C12.5239 14 12.2272 13.8771 12.0084 13.6583C11.7896 13.4395 11.6667 13.1428 11.6667 12.8333V10.5C11.6667 10.1906 11.7896 9.89384 12.0084 9.67505C12.2272 9.45626 12.5239 9.33334 12.8333 9.33334H15.1667C15.4761 9.33334 15.7728 9.45626 15.9916 9.67505C16.2104 9.89384 16.3333 10.1906 16.3333 10.5M19.8333 9.33334L22.1667 18.6667L24.5 9.33334M8.16667 11.6667C8.16667 11.0478 7.92083 10.4543 7.48325 10.0168C7.04566 9.57918 6.45217 9.33334 5.83333 9.33334C5.21449 9.33334 4.621 9.57918 4.18342 10.0168C3.74583 10.4543 3.5 11.0478 3.5 11.6667V16.3333C3.5 16.9522 3.74583 17.5457 4.18342 17.9833C4.621 18.4208 5.21449 18.6667 5.83333 18.6667C6.45217 18.6667 7.04566 18.4208 7.48325 17.9833C7.92083 17.5457 8.16667 16.9522 8.16667 16.3333" stroke="#EECE47" stroke-width="2.33333" stroke-linecap="round" stroke-linejoin="round"/>
</svg>
