<svg width="35" height="34" viewBox="0 0 55 54" fill="none" xmlns="http://www.w3.org/2000/svg">
<path d="M42.2222 7.5C42.2222 9.22391 42.8427 10.8772 43.947 12.0962C45.0514 13.3152 46.5493 14 48.1111 14C49.6729 14 51.1708 13.3152 52.2752 12.0962C53.3796 10.8772 54 9.22391 54 7.5C54 5.77609 53.3796 4.12279 52.2752 2.90381C51.1708 1.68482 49.6729 1 48.1111 1C46.5493 1 45.0514 1.68482 43.947 2.90381C42.8427 4.12279 42.2222 5.77609 42.2222 7.5ZM42.2222 7.5H31.9167L21.6111 27M42.2222 46.5C42.2222 48.2239 42.8427 49.8772 43.947 51.0962C45.0514 52.3152 46.5493 53 48.1111 53C49.6729 53 51.1708 52.3152 52.2752 51.0962C53.3796 49.8772 54 48.2239 54 46.5C54 44.7761 53.3796 43.1228 52.2752 41.9038C51.1708 40.6848 49.6729 40 48.1111 40C46.5493 40 45.0514 40.6848 43.947 41.9038C42.8427 43.1228 42.2222 44.7761 42.2222 46.5ZM42.2222 46.5H31.9167L21.6111 27M12.7778 27C12.7778 28.7239 12.1573 30.3772 11.053 31.5962C9.94858 32.8152 8.45072 33.5 6.88889 33.5C5.32706 33.5 3.8292 32.8152 2.72482 31.5962C1.62043 30.3772 1 28.7239 1 27C1 25.2761 1.62043 23.6228 2.72482 22.4038C3.8292 21.1848 5.32706 20.5 6.88889 20.5C8.45072 20.5 9.94858 21.1848 11.053 22.4038C12.1573 23.6228 12.7778 25.2761 12.7778 27ZM12.7778 27H21.6111" stroke="#FF8E37" stroke-width="2" stroke-linecap="round" stroke-linejoin="round"/>
</svg>
