<svg width="28" height="28" viewBox="0 0 28 28" fill="none" xmlns="http://www.w3.org/2000/svg">
<path d="M24.5003 13.9994L5.48128 4.70575C5.37272 4.66403 5.25421 4.6555 5.1408 4.68126C5.02738 4.70702 4.92417 4.76589 4.84428 4.85042C4.76205 4.93718 4.70544 5.04502 4.68073 5.16199C4.65602 5.27895 4.66417 5.40047 4.70428 5.51308L7.58362 13.9994M24.5003 13.9994L5.48128 23.2931C5.37272 23.3348 5.25421 23.3433 5.1408 23.3176C5.02738 23.2918 4.92417 23.2329 4.84428 23.1484C4.76205 23.0616 4.70544 22.9538 4.68073 22.8368C4.65602 22.7199 4.66417 22.5984 4.70428 22.4858L7.58362 13.9994M24.5003 13.9994H7.58362" stroke="#3094FF" stroke-width="2.33333" stroke-linecap="round" stroke-linejoin="round"/>
</svg>
