<svg width="24" height="24" viewBox="0 0 24 24" fill="none" xmlns="http://www.w3.org/2000/svg">
<path d="M5.31505 2.10037C6.10605 1.98737 7.21505 2.24537 8.64805 3.06637L8.92005 3.22737L9.08005 3.32737L9.47705 3.24437C10.9908 2.95186 12.544 2.92479 14.0671 3.16437L14.5231 3.24437L14.9191 3.32737L15.0801 3.22737C16.4651 2.38737 17.5671 2.05737 18.4021 2.07937L18.5661 2.08737L18.7131 2.10437L18.7891 2.11837L18.8391 2.12937L18.9831 2.17637C19.2188 2.27382 19.4084 2.4577 19.5131 2.69037C19.9223 3.60207 20.0601 4.61237 19.9101 5.60037L19.8631 5.86737L19.8171 6.06337L19.9401 6.22637C20.5141 7.02137 20.8701 7.95437 20.9701 8.93337L20.9931 9.22837L21.0001 9.50037C21.0001 13.3554 19.3411 15.3834 16.3561 16.1804L16.1111 16.2414L15.9791 16.2704L15.9931 16.4314L16.001 16.5884L16.005 16.9534L16.0031 17.1664L16.0001 21.0004C16 21.2453 15.9101 21.4817 15.7473 21.6647C15.5846 21.8478 15.3603 21.9647 15.1171 21.9934L15.0001 22.0004H9.00005C8.75512 22.0003 8.51871 21.9104 8.33568 21.7477C8.15264 21.5849 8.03571 21.3606 8.00705 21.1174L8.00005 21.0004V20.2664C6.18205 20.5264 4.97005 19.8424 3.89005 18.3884L3.35505 17.6224C3.07505 17.2264 2.90005 17.0434 2.76605 16.9784L2.71805 16.9594C2.47046 16.8789 2.26401 16.7051 2.14257 16.4748C2.02113 16.2445 1.99428 15.976 2.06772 15.7262C2.14116 15.4765 2.30911 15.2652 2.53587 15.1373C2.76263 15.0094 3.03032 14.975 3.28205 15.0414C3.92405 15.2294 4.35605 15.6094 4.85205 16.2804L5.39005 17.0494C6.15005 18.1284 6.75005 18.5084 7.99905 18.2404L8.00005 17.5624L7.98205 17.3944C7.95252 17.1207 7.9455 16.8451 7.96105 16.5704L7.97805 16.3854L7.99705 16.2654L7.88905 16.2414C4.91305 15.5314 3.18605 13.6684 3.01405 10.1024L3.00405 9.79237L3.00005 9.50037C3.00121 8.41695 3.31662 7.35712 3.90805 6.44937L4.06005 6.22737L4.18205 6.06437L4.13705 5.86837C3.95677 4.98993 4.00672 4.0798 4.28205 3.22637L4.38205 2.94437L4.48805 2.69137C4.59245 2.45889 4.78166 2.27504 5.01705 2.17737L5.16105 2.13037L5.31505 2.10037Z" fill="black"/>
</svg>
