<svg width="24" height="24" viewBox="0 0 24 24" fill="none" xmlns="http://www.w3.org/2000/svg">
<path d="M8.99976 12.001C8.99976 12.7966 9.31583 13.5597 9.87844 14.1223C10.441 14.6849 11.2041 15.001 11.9998 15.001C12.7954 15.001 13.5585 14.6849 14.1211 14.1223C14.6837 13.5597 14.9998 12.7966 14.9998 12.001M8.99976 12.001C8.99976 11.2053 9.31583 10.4423 9.87844 9.87966C10.441 9.31705 11.2041 9.00098 11.9998 9.00098C12.7954 9.00098 13.5585 9.31705 14.1211 9.87966C14.6837 10.4423 14.9998 11.2053 14.9998 12.001M8.99976 12.001L6.33574 12.367C5.47974 12.507 4.86374 12.685 4.48974 12.903C3.8043 13.3042 3.30515 13.96 3.101 14.7276C2.89684 15.4951 3.00422 16.3122 3.39974 17.001C3.59366 17.3416 3.8531 17.6404 4.16311 17.8802C4.47312 18.12 4.82755 18.296 5.20595 18.3981C5.58434 18.5001 5.97921 18.5263 6.36776 18.4749C6.75631 18.4236 7.13084 18.2958 7.46974 18.099C7.81774 17.894 8.24074 17.495 8.73974 16.894L10.4997 15.001L9.77574 16.361C9.25874 17.559 8.99974 18.439 8.99974 19.001C8.99974 19.7966 9.31581 20.5597 9.87842 21.1223C10.441 21.6849 11.2041 22.001 11.9997 22.001C12.7954 22.001 13.5585 21.6849 14.1211 21.1223C14.6837 20.5597 14.9997 19.7966 14.9997 19.001C14.9997 18.44 14.7397 17.56 14.2237 16.361L13.4997 15.001L15.2597 16.894C15.7587 17.495 16.1817 17.897 16.5297 18.099C16.8686 18.2958 17.2432 18.4236 17.6317 18.4749C18.0203 18.5263 18.4151 18.5001 18.7935 18.3981C19.1719 18.296 19.5264 18.12 19.8364 17.8802C20.1464 17.6404 20.4058 17.3416 20.5997 17.001C20.9953 16.3122 21.1026 15.4951 20.8985 14.7276C20.6943 13.96 20.1952 13.3042 19.5097 12.903C19.0977 12.664 18.3997 12.472 17.3997 12.327L14.9998 12.001M8.99976 12.001L6.59974 11.676C5.59974 11.531 4.90174 11.339 4.48974 11.1C3.80404 10.6987 3.30469 10.0428 3.10052 9.27497C2.89635 8.50718 3.00391 7.68981 3.39974 7.00098C3.59357 6.6603 3.85296 6.36139 4.16293 6.1215C4.4729 5.88161 4.82732 5.70549 5.20572 5.60331C5.58412 5.50114 5.97902 5.47492 6.36761 5.52618C6.7562 5.57744 7.13078 5.70517 7.46974 5.90198C7.81774 6.10498 8.24074 6.50598 8.73974 7.10698L10.4997 9.00098C9.49974 6.70898 8.99974 5.37598 8.99974 5.00098C8.99974 4.20533 9.31581 3.44227 9.87842 2.87966C10.441 2.31705 11.2041 2.00098 11.9997 2.00098C12.7954 2.00098 13.5585 2.31705 14.1211 2.87966C14.6837 3.44227 14.9997 4.20533 14.9997 5.00098C14.9997 5.56298 14.7407 6.44298 14.2237 7.64098L13.4997 9.00098L15.2597 7.10798C15.7587 6.50798 16.1817 6.10798 16.5297 5.90298C16.8687 5.70617 17.2433 5.57844 17.6319 5.52718C18.0205 5.47592 18.4154 5.50214 18.7938 5.60432C19.1722 5.70649 19.5266 5.88261 19.8366 6.1225C20.1465 6.36239 20.4059 6.6613 20.5997 7.00198C20.9953 7.69072 21.1026 8.50785 20.8985 9.2754C20.6943 10.0429 20.1952 10.6987 19.5097 11.1C19.1357 11.317 18.5197 11.496 17.6637 11.635L14.9998 12.001" stroke="black" stroke-width="1.8" stroke-linecap="round" stroke-linejoin="round"/>
</svg>
