<svg width="20" height="20" viewBox="0 0 20 20" fill="none" xmlns="http://www.w3.org/2000/svg">
<path d="M10 0.999943C10.132 0.999943 10.263 0.999943 10.393 0.999943C9.10837 2.19365 8.28262 3.79979 8.05932 5.53916C7.83602 7.27854 8.22928 9.04118 9.17076 10.5207C10.1122 12.0002 11.5424 13.103 13.2126 13.6374C14.8829 14.1718 16.6876 14.1041 18.313 13.4459C17.6878 14.9504 16.6658 16.257 15.3562 17.2262C14.0466 18.1954 12.4985 18.791 10.8769 18.9493C9.2554 19.1077 7.62129 18.8229 6.14892 18.1253C4.67654 17.4278 3.42114 16.3436 2.51661 14.9885C1.61209 13.6334 1.09238 12.0582 1.01291 10.4309C0.933445 8.8036 1.29721 7.18524 2.0654 5.74846C2.83359 4.31167 3.97739 3.11037 5.37479 2.27268C6.77219 1.43499 8.37078 0.992336 10 0.991943V0.999943Z" stroke="black" stroke-width="2" stroke-linecap="round" stroke-linejoin="round"/>
</svg>
