<svg width="62" height="62" viewBox="0 0 62 62" fill="none" xmlns="http://www.w3.org/2000/svg">
<path d="M23.2495 31.0011C23.2495 33.0565 24.066 35.0277 25.5194 36.4811C26.9728 37.9345 28.9441 38.7511 30.9995 38.7511C33.0549 38.7511 35.0262 37.9345 36.4796 36.4811C37.933 35.0277 38.7495 33.0565 38.7495 31.0011M23.2495 31.0011C23.2495 28.9456 24.066 26.9744 25.5194 25.521C26.9728 24.0676 28.9441 23.2511 30.9995 23.2511C33.0549 23.2511 35.0262 24.0676 36.4796 25.521C37.933 26.9744 38.7495 28.9456 38.7495 31.0011M23.2495 31.0011L16.3675 31.9466C14.1561 32.3082 12.5648 32.7681 11.5986 33.3312C9.8279 34.3677 8.53843 36.0619 8.01103 38.0447C7.48363 40.0276 7.76101 42.1385 8.78279 43.9177C9.28372 44.7976 9.95396 45.5695 10.7548 46.189C11.5557 46.8084 12.4713 47.2631 13.4488 47.5269C14.4263 47.7906 15.4464 47.8581 16.4502 47.7255C17.4539 47.5929 18.4215 47.2628 19.297 46.7542C20.196 46.2246 21.2887 45.1939 22.5778 43.6413L27.1245 38.7511L25.2541 42.2644C23.9185 45.3592 23.2495 47.6326 23.2495 49.0844C23.2495 51.1398 24.066 53.1111 25.5194 54.5645C26.9728 56.0179 28.944 56.8344 30.9995 56.8344C33.0549 56.8344 35.0261 56.0179 36.4795 54.5645C37.9329 53.1111 38.7495 51.1398 38.7495 49.0844C38.7495 47.6351 38.0778 45.3618 36.7448 42.2644L34.8745 38.7511L39.4211 43.6413C40.7102 45.1939 41.803 46.2324 42.702 46.7542C43.5774 47.2628 44.545 47.5929 45.5487 47.7255C46.5525 47.8581 47.5726 47.7906 48.5501 47.5269C49.5276 47.2631 50.4432 46.8084 51.2441 46.189C52.0449 45.5695 52.7152 44.7976 53.2161 43.9177C54.2379 42.1385 54.5153 40.0276 53.9879 38.0447C53.4605 36.0619 52.171 34.3677 50.4003 33.3312C49.336 32.7138 47.5328 32.2178 44.9494 31.8432L38.7495 31.0011M23.2495 31.0011L17.0495 30.1615C14.4661 29.7869 12.663 29.2909 11.5986 28.6735C9.8272 27.637 8.53723 25.9423 8.00979 23.9589C7.48236 21.9754 7.7602 19.8639 8.78279 18.0844C9.28351 17.2043 9.95359 16.4321 10.7543 15.8124C11.5551 15.1927 12.4707 14.7377 13.4482 14.4738C14.4258 14.2098 15.4459 14.1421 16.4498 14.2745C17.4536 14.4069 18.4213 14.7369 19.297 15.2453C20.196 15.7697 21.2887 16.8056 22.5778 18.3582L27.1245 23.2511C24.5411 17.3301 23.2495 13.8865 23.2495 12.9177C23.2495 10.8623 24.066 8.89105 25.5194 7.43765C26.9728 5.98424 28.944 5.16772 30.9995 5.16772C33.0549 5.16772 35.0261 5.98424 36.4795 7.43765C37.9329 8.89105 38.7495 10.8623 38.7495 12.9177C38.7495 14.3696 38.0804 16.6429 36.7448 19.7377L34.8745 23.2511L39.4211 18.3608C40.7102 16.8108 41.803 15.7775 42.702 15.2479C43.5776 14.7395 44.5453 14.4095 45.5491 14.2771C46.553 14.1447 47.5731 14.2124 48.5507 14.4763C49.5282 14.7403 50.4438 15.1953 51.2446 15.815C52.0453 16.4347 52.7154 17.2069 53.2161 18.087C54.2379 19.8662 54.5153 21.9771 53.9879 23.96C53.4605 25.9428 52.171 27.637 50.4003 28.6735C49.4341 29.2341 47.8428 29.6965 45.6314 30.0556L38.7495 31.0011" stroke="#EECE47" stroke-width="4.65" stroke-linecap="round" stroke-linejoin="round"/>
</svg>
