<svg width="23" height="23" viewBox="0 0 23 23" fill="none" xmlns="http://www.w3.org/2000/svg">
<path d="M7.21659 14.3493V8.84928L9.04993 10.6826L10.8833 8.84928V14.3493M13.6333 12.516L15.4666 14.3493M15.4666 14.3493L17.2999 12.516M15.4666 14.3493V8.84928M3.54993 7.01595C3.54993 6.52972 3.74308 6.0634 4.0869 5.71959C4.43071 5.37577 4.89703 5.18262 5.38326 5.18262H18.2166C18.7028 5.18262 19.1691 5.37577 19.513 5.71959C19.8568 6.0634 20.0499 6.52972 20.0499 7.01595V16.1826C20.0499 16.6688 19.8568 17.1352 19.513 17.479C19.1691 17.8228 18.7028 18.0159 18.2166 18.0159H5.38326C4.89703 18.0159 4.43071 17.8228 4.0869 17.479C3.74308 17.1352 3.54993 16.6688 3.54993 16.1826V7.01595Z" stroke="#FF6531" stroke-width="2" stroke-linecap="round" stroke-linejoin="round"/>
</svg>
