<svg width="52" height="52" viewBox="0 0 52 52" fill="none" xmlns="http://www.w3.org/2000/svg">
<rect width="52" height="52" rx="12" fill="#FF6A3C" fill-opacity="0.08"/>
<path d="M12.5 25.998H15.5C16.2956 25.998 17.0587 25.682 17.6213 25.1194C18.1839 24.5568 18.5 23.7937 18.5 22.998C18.5 22.2024 18.1839 21.4393 17.6213 20.8767C17.0587 20.3141 16.2956 19.998 15.5 19.998H12.5V31.998M33.5 25.998H38M39.5 19.998H33.5V31.998M23 19.998V31.998H26C26.7956 31.998 27.5587 31.682 28.1213 31.1194C28.6839 30.5568 29 29.7937 29 28.998V22.998C29 22.2024 28.6839 21.4393 28.1213 20.8767C27.5587 20.3141 26.7956 19.998 26 19.998H23Z" stroke="#FF6A3C" stroke-width="2.61818" stroke-linecap="round" stroke-linejoin="round"/>
</svg>
