<svg width="28" height="28" viewBox="0 0 28 28" fill="none" xmlns="http://www.w3.org/2000/svg">
<path d="M3.5 14H5.83333C6.45217 14 7.04566 13.7542 7.48325 13.3166C7.92083 12.879 8.16667 12.2855 8.16667 11.6667C8.16667 11.0478 7.92083 10.4543 7.48325 10.0168C7.04566 9.57918 6.45217 9.33334 5.83333 9.33334H3.5V18.6667M19.8333 14H23.3333M24.5 9.33334H19.8333V18.6667M11.6667 9.33334V18.6667H14C14.6188 18.6667 15.2123 18.4208 15.6499 17.9833C16.0875 17.5457 16.3333 16.9522 16.3333 16.3333V11.6667C16.3333 11.0478 16.0875 10.4543 15.6499 10.0168C15.2123 9.57918 14.6188 9.33334 14 9.33334H11.6667Z" stroke="#FF6A3C" stroke-width="1.5" stroke-linecap="round" stroke-linejoin="round"/>
</svg>
