<svg width="40" height="40" viewBox="0 0 40 40" fill="none" xmlns="http://www.w3.org/2000/svg">
<rect width="40" height="40" rx="20" fill="white"/>
<path d="M14 12.0003V28.0003C13.9999 28.1782 14.0474 28.3529 14.1374 28.5064C14.2274 28.6599 14.3567 28.7866 14.512 28.8734C14.6673 28.9602 14.843 29.0041 15.0209 29.0003C15.1988 28.9966 15.3725 28.9455 15.524 28.8523L28.524 20.8523C28.6696 20.7628 28.7898 20.6375 28.8733 20.4884C28.9567 20.3392 29.0005 20.1712 29.0005 20.0003C29.0005 19.8294 28.9567 19.6613 28.8733 19.5122C28.7898 19.363 28.6696 19.2378 28.524 19.1483L15.524 11.1483C15.3725 11.055 15.1988 11.0039 15.0209 11.0002C14.843 10.9965 14.6673 11.0403 14.512 11.1271C14.3567 11.214 14.2274 11.3407 14.1374 11.4941C14.0474 11.6476 13.9999 11.8224 14 12.0003Z" fill="black"/>
</svg>
