<svg width="17" height="20" viewBox="0 0 17 20" fill="none" xmlns="http://www.w3.org/2000/svg">
<path d="M10 1V5C10 5.26522 10.1054 5.51957 10.2929 5.70711C10.4804 5.89464 10.7348 6 11 6H15M10 1H3C2.46957 1 1.96086 1.21071 1.58579 1.58579C1.21071 1.96086 1 2.46957 1 3V10M10 1L15 6M15 6V10M1 16H2.5C2.89782 16 3.27936 15.842 3.56066 15.5607C3.84196 15.2794 4 14.8978 4 14.5C4 14.1022 3.84196 13.7206 3.56066 13.4393C3.27936 13.158 2.89782 13 2.5 13H1V19M7 16H8.5C8.89782 16 9.27936 15.842 9.56066 15.5607C9.84196 15.2794 10 14.8978 10 14.5C10 14.1022 9.84196 13.7206 9.56066 13.4393C9.27936 13.158 8.89782 13 8.5 13H7V19M12.5 13H15.5M14 13V19" stroke="#FF6531" stroke-width="2" stroke-linecap="round" stroke-linejoin="round"/>
</svg>
