<svg width="24" height="24" viewBox="0 0 24 24" fill="none" xmlns="http://www.w3.org/2000/svg">
<path d="M14 6L21 13L17 17M4 20L5.768 18.232M5.82812 18.172C6.09073 18.4347 6.40253 18.6431 6.74569 18.7853C7.08885 18.9274 7.45667 19.0006 7.82812 19.0006C8.19957 19.0006 8.56738 18.9274 8.91054 18.7853C9.25371 18.6431 9.5655 18.4347 9.82812 18.172L20.4141 7.58601C20.5999 7.40028 20.7473 7.17977 20.8479 6.93707C20.9484 6.69436 21.0002 6.43422 21.0002 6.17151C21.0002 5.9088 20.9484 5.64866 20.8479 5.40596C20.7473 5.16325 20.5999 4.94274 20.4141 4.75701L19.2431 3.58601C19.0574 3.40021 18.8369 3.25282 18.5942 3.15226C18.3515 3.0517 18.0913 2.99994 17.8286 2.99994C17.5659 2.99994 17.3058 3.0517 17.0631 3.15226C16.8204 3.25282 16.5998 3.40021 16.4141 3.58601L5.82812 14.172C5.56542 14.4346 5.35704 14.7464 5.21486 15.0896C5.07269 15.4328 4.99951 15.8006 4.99951 16.172C4.99951 16.5435 5.07269 16.9113 5.21486 17.2544C5.35704 17.5976 5.56542 17.9094 5.82812 18.172Z" stroke="#3094FF" stroke-width="2" stroke-linecap="round" stroke-linejoin="round"/>
</svg>
