<svg width="41" height="40" viewBox="0 0 41 40" fill="none" xmlns="http://www.w3.org/2000/svg">
<rect x="0.666748" width="40" height="40" rx="20" fill="#2ABCFF" fill-opacity="0.08"/>
<path d="M14.6667 12.0003V28.0003C14.6667 28.1782 14.7141 28.3529 14.8041 28.5064C14.8941 28.6599 15.0235 28.7866 15.1788 28.8734C15.3341 28.9602 15.5097 29.0041 15.6876 29.0003C15.8655 28.9966 16.0392 28.9455 16.1907 28.8523L29.1907 20.8523C29.3363 20.7628 29.4566 20.6375 29.54 20.4884C29.6234 20.3392 29.6672 20.1712 29.6672 20.0003C29.6672 19.8294 29.6234 19.6613 29.54 19.5122C29.4566 19.363 29.3363 19.2378 29.1907 19.1483L16.1907 11.1483C16.0392 11.055 15.8655 11.0039 15.6876 11.0002C15.5097 10.9965 15.3341 11.0403 15.1788 11.1271C15.0235 11.214 14.8941 11.3407 14.8041 11.4941C14.7141 11.6476 14.6667 11.8224 14.6667 12.0003Z" stroke="#2ABCFF" stroke-width="2" stroke-linecap="round" stroke-linejoin="round"/>
</svg>
