<svg width="20" height="20" viewBox="0 0 20 20" fill="none" xmlns="http://www.w3.org/2000/svg">
<path d="M7.5 9.99996C7.5 10.663 7.76339 11.2989 8.23223 11.7677C8.70107 12.2366 9.33696 12.5 10 12.5C10.663 12.5 11.2989 12.2366 11.7678 11.7677C12.2366 11.2989 12.5 10.663 12.5 9.99996M7.5 9.99996C7.5 9.33692 7.76339 8.70103 8.23223 8.23219C8.70107 7.76335 9.33696 7.49996 10 7.49996C10.663 7.49996 11.2989 7.76335 11.7678 8.23219C12.2366 8.70103 12.5 9.33692 12.5 9.99996M7.5 9.99996L5.27999 10.305C4.56666 10.4216 4.05332 10.57 3.74166 10.7516C3.17046 11.086 2.7545 11.6325 2.58437 12.2721C2.41424 12.9117 2.50372 13.5927 2.83332 14.1666C2.99492 14.4505 3.21112 14.6995 3.46946 14.8993C3.7278 15.0991 4.02316 15.2458 4.33849 15.3309C4.65382 15.4159 4.98288 15.4377 5.30667 15.3949C5.63046 15.3522 5.94257 15.2457 6.22499 15.0816C6.51499 14.9108 6.86749 14.5783 7.28332 14.0775L8.74999 12.5L8.14666 13.6333C7.71582 14.6316 7.49999 15.365 7.49999 15.8333C7.49999 16.4963 7.76338 17.1322 8.23222 17.6011C8.70106 18.0699 9.33695 18.3333 9.99999 18.3333C10.663 18.3333 11.2989 18.0699 11.7678 17.6011C12.2366 17.1322 12.5 16.4963 12.5 15.8333C12.5 15.3658 12.2833 14.6325 11.8533 13.6333L11.25 12.5L12.7167 14.0775C13.1325 14.5783 13.485 14.9133 13.775 15.0816C14.0574 15.2457 14.3695 15.3522 14.6933 15.3949C15.0171 15.4377 15.3462 15.4159 15.6615 15.3309C15.9768 15.2458 16.2722 15.0991 16.5305 14.8993C16.7889 14.6995 17.0051 14.4505 17.1667 14.1666C17.4963 13.5927 17.5857 12.9117 17.4156 12.2721C17.2455 11.6325 16.8295 11.086 16.2583 10.7516C15.915 10.5525 15.3333 10.3925 14.5 10.2716L12.5 9.99996M7.5 9.99996L5.49999 9.72913C4.66666 9.60829 4.08499 9.44829 3.74166 9.24913C3.17023 8.91476 2.75411 8.36811 2.58397 7.72829C2.41383 7.08846 2.50346 6.40732 2.83332 5.83329C2.99485 5.5494 3.211 5.3003 3.46931 5.1004C3.72762 4.90049 4.02297 4.75372 4.3383 4.66857C4.65364 4.58343 4.98272 4.56158 5.30654 4.6043C5.63037 4.64702 5.94252 4.75345 6.22499 4.91746C6.51499 5.08663 6.86749 5.42079 7.28332 5.92163L8.74999 7.49996C7.91666 5.58996 7.49999 4.47913 7.49999 4.16663C7.49999 3.50358 7.76338 2.8677 8.23222 2.39886C8.70106 1.93002 9.33695 1.66663 9.99999 1.66663C10.663 1.66663 11.2989 1.93002 11.7678 2.39886C12.2366 2.8677 12.5 3.50358 12.5 4.16663C12.5 4.63496 12.2842 5.36829 11.8533 6.36663L11.25 7.49996L12.7167 5.92246C13.1325 5.42246 13.485 5.08913 13.775 4.91829C14.0575 4.75428 14.3696 4.64785 14.6934 4.60513C15.0173 4.56241 15.3463 4.58426 15.6617 4.66941C15.977 4.75456 16.2724 4.90132 16.5307 5.10123C16.789 5.30114 17.0051 5.55023 17.1667 5.83413C17.4963 6.40808 17.5857 7.08902 17.4156 7.72864C17.2455 8.36827 16.8295 8.91477 16.2583 9.24913C15.9467 9.42996 15.4333 9.57913 14.72 9.69496L12.5 9.99996" stroke="#EECE47" stroke-width="1.66667" stroke-linecap="round" stroke-linejoin="round"/>
</svg>
