<svg width="53" height="52" viewBox="0 0 53 52" fill="none" xmlns="http://www.w3.org/2000/svg">
<rect x="0.666626" width="52" height="52" rx="12" fill="#2ABCFF" fill-opacity="0.08"/>
<path d="M34.1666 19.999V31.999H40.1666M28.1666 30.499L29.6666 31.999M13.1666 30.499C13.1666 30.8968 13.3247 31.2784 13.606 31.5597C13.8873 31.841 14.2688 31.999 14.6666 31.999H17.6666C18.0645 31.999 18.446 31.841 18.7273 31.5597C19.0086 31.2784 19.1666 30.8968 19.1666 30.499V27.499C19.1666 27.1012 19.0086 26.7197 18.7273 26.4384C18.446 26.1571 18.0645 25.999 17.6666 25.999H14.6666C14.2688 25.999 13.8873 25.841 13.606 25.5597C13.3247 25.2784 13.1666 24.8968 13.1666 24.499V21.499C13.1666 21.1012 13.3247 20.7197 13.606 20.4384C13.8873 20.1571 14.2688 19.999 14.6666 19.999H17.6666C18.0645 19.999 18.446 20.1571 18.7273 20.4384C19.0086 20.7197 19.1666 21.1012 19.1666 21.499M26.6666 19.999C27.4623 19.999 28.2253 20.3151 28.7879 20.8777C29.3506 21.4403 29.6666 22.2034 29.6666 22.999V28.999C29.6666 29.7947 29.3506 30.5577 28.7879 31.1203C28.2253 31.683 27.4623 31.999 26.6666 31.999C25.871 31.999 25.1079 31.683 24.5453 31.1203C23.9827 30.5577 23.6666 29.7947 23.6666 28.999V22.999C23.6666 22.2034 23.9827 21.4403 24.5453 20.8777C25.1079 20.3151 25.871 19.999 26.6666 19.999Z" stroke="#2ABCFF" stroke-width="2.61818" stroke-linecap="round" stroke-linejoin="round"/>
</svg>
