<svg width="28" height="28" viewBox="0 0 28 28" fill="none" xmlns="http://www.w3.org/2000/svg">
<path d="M19.8333 9.33334V18.6667H24.5M15.1667 17.5L16.3333 18.6667M3.5 17.5C3.5 17.8094 3.62292 18.1062 3.84171 18.325C4.0605 18.5438 4.35725 18.6667 4.66667 18.6667H7C7.30942 18.6667 7.60617 18.5438 7.82496 18.325C8.04375 18.1062 8.16667 17.8094 8.16667 17.5V15.1667C8.16667 14.8573 8.04375 14.5605 7.82496 14.3417C7.60617 14.1229 7.30942 14 7 14H4.66667C4.35725 14 4.0605 13.8771 3.84171 13.6583C3.62292 13.4395 3.5 13.1428 3.5 12.8333V10.5C3.5 10.1906 3.62292 9.89384 3.84171 9.67505C4.0605 9.45626 4.35725 9.33334 4.66667 9.33334H7C7.30942 9.33334 7.60617 9.45626 7.82496 9.67505C8.04375 9.89384 8.16667 10.1906 8.16667 10.5M14 9.33334C14.6188 9.33334 15.2123 9.57918 15.6499 10.0168C16.0875 10.4543 16.3333 11.0478 16.3333 11.6667V16.3333C16.3333 16.9522 16.0875 17.5457 15.6499 17.9833C15.2123 18.4208 14.6188 18.6667 14 18.6667C13.3812 18.6667 12.7877 18.4208 12.3501 17.9833C11.9125 17.5457 11.6667 16.9522 11.6667 16.3333V11.6667C11.6667 11.0478 11.9125 10.4543 12.3501 10.0168C12.7877 9.57918 13.3812 9.33334 14 9.33334Z" stroke="#2ABCFF" stroke-width="2.33333" stroke-linecap="round" stroke-linejoin="round"/>
</svg>
