<svg width="28" height="28" viewBox="0 0 28 28" fill="none" xmlns="http://www.w3.org/2000/svg">
<path d="M18.6667 21C19.2855 21 19.879 21.2458 20.3166 21.6834C20.7542 22.121 21 22.7145 21 23.3333C21 22.7145 21.2458 22.121 21.6834 21.6834C22.121 21.2458 22.7145 21 23.3333 21C22.7145 21 22.121 20.7542 21.6834 20.3166C21.2458 19.879 21 19.2855 21 18.6667C21 19.2855 20.7542 19.879 20.3166 20.3166C19.879 20.7542 19.2855 21 18.6667 21ZM18.6667 7.00001C19.2855 7.00001 19.879 7.24584 20.3166 7.68342C20.7542 8.12101 21 8.7145 21 9.33334C21 8.7145 21.2458 8.12101 21.6834 7.68342C22.121 7.24584 22.7145 7.00001 23.3333 7.00001C22.7145 7.00001 22.121 6.75417 21.6834 6.31659C21.2458 5.879 21 5.28551 21 4.66667C21 5.28551 20.7542 5.879 20.3166 6.31659C19.879 6.75417 19.2855 7.00001 18.6667 7.00001ZM10.5 21C10.5 19.1435 11.2375 17.363 12.5503 16.0503C13.863 14.7375 15.6435 14 17.5 14C15.6435 14 13.863 13.2625 12.5503 11.9498C11.2375 10.637 10.5 8.85652 10.5 7.00001C10.5 8.85652 9.7625 10.637 8.44975 11.9498C7.13699 13.2625 5.35652 14 3.5 14C5.35652 14 7.13699 14.7375 8.44975 16.0503C9.7625 17.363 10.5 19.1435 10.5 21Z" stroke="#EECE47" stroke-width="2.33333" stroke-linecap="round" stroke-linejoin="round"/>
<path d="M18.6667 20.9993C19.2855 20.9993 19.879 21.2452 20.3166 21.6828C20.7542 22.1203 21 22.7138 21 23.3327C21 22.7138 21.2458 22.1203 21.6834 21.6828C22.121 21.2452 22.7145 20.9993 23.3333 20.9993C22.7145 20.9993 22.121 20.7535 21.6834 20.3159C21.2458 19.8783 21 19.2849 21 18.666C21 19.2849 20.7542 19.8783 20.3166 20.3159C19.879 20.7535 19.2855 20.9993 18.6667 20.9993ZM18.6667 6.99935C19.2855 6.99935 19.879 7.24518 20.3166 7.68277C20.7542 8.12035 21 8.71384 21 9.33268C21 8.71384 21.2458 8.12035 21.6834 7.68277C22.121 7.24518 22.7145 6.99935 23.3333 6.99935C22.7145 6.99935 22.121 6.75352 21.6834 6.31593C21.2458 5.87835 21 5.28485 21 4.66602C21 5.28485 20.7542 5.87835 20.3166 6.31593C19.879 6.75352 19.2855 6.99935 18.6667 6.99935ZM10.5 20.9993C10.5 19.1428 11.2375 17.3624 12.5503 16.0496C13.863 14.7368 15.6435 13.9993 17.5 13.9993C15.6435 13.9993 13.863 13.2619 12.5503 11.9491C11.2375 10.6363 10.5 8.85586 10.5 6.99935C10.5 8.85586 9.7625 10.6363 8.44975 11.9491C7.13699 13.2619 5.35652 13.9993 3.5 13.9993C5.35652 13.9993 7.13699 14.7368 8.44975 16.0496C9.7625 17.3624 10.5 19.1428 10.5 20.9993Z" fill="#EECE47"/>
</svg>
