<svg width="41" height="40" viewBox="0 0 41 40" fill="none" xmlns="http://www.w3.org/2000/svg">
<rect x="0.333496" width="40" height="40" rx="20" fill="#E59CFF" fill-opacity="0.08"/>
<path d="M14.3335 12.0003V28.0003C14.3334 28.1782 14.3809 28.3529 14.4709 28.5064C14.5609 28.6599 14.6902 28.7866 14.8455 28.8734C15.0008 28.9602 15.1765 29.0041 15.3544 29.0003C15.5323 28.9966 15.706 28.9455 15.8575 28.8523L28.8575 20.8523C29.0031 20.7628 29.1233 20.6375 29.2067 20.4884C29.2902 20.3392 29.334 20.1712 29.334 20.0003C29.334 19.8294 29.2902 19.6613 29.2067 19.5122C29.1233 19.363 29.0031 19.2378 28.8575 19.1483L15.8575 11.1483C15.706 11.055 15.5323 11.0039 15.3544 11.0002C15.1765 10.9965 15.0008 11.0403 14.8455 11.1271C14.6902 11.214 14.5609 11.3407 14.4709 11.4941C14.3809 11.6476 14.3334 11.8224 14.3335 12.0003Z" stroke="#DB78FF" stroke-width="2" stroke-linecap="round" stroke-linejoin="round"/>
</svg>
