<svg width="53" height="52" viewBox="0 0 53 52" fill="none" xmlns="http://www.w3.org/2000/svg">
<rect x="0.333374" width="52" height="52" rx="12" fill="#E59CFF" fill-opacity="0.08"/>
<path d="M15.5334 22.143H37.1334M15.5334 29.8573H37.1334M25.6905 14.4287C23.5245 17.8996 22.3762 21.9088 22.3762 26.0001C22.3762 30.0915 23.5245 34.1006 25.6905 37.5716M26.9762 14.4287C29.1422 17.8996 30.2906 21.9088 30.2906 26.0001C30.2906 30.0915 29.1422 34.1006 26.9762 37.5716M14.762 26.0001C14.762 27.5197 15.0613 29.0244 15.6428 30.4283C16.2243 31.8322 17.0766 33.1079 18.1512 34.1824C19.2257 35.2569 20.5013 36.1092 21.9052 36.6907C23.3091 37.2723 24.8138 37.5716 26.3334 37.5716C27.853 37.5716 29.3577 37.2723 30.7616 36.6907C32.1655 36.1092 33.4411 35.2569 34.5156 34.1824C35.5901 33.1079 36.4425 31.8322 37.024 30.4283C37.6055 29.0244 37.9048 27.5197 37.9048 26.0001C37.9048 22.9312 36.6857 19.988 34.5156 17.8179C32.3456 15.6478 29.4023 14.4287 26.3334 14.4287C23.2645 14.4287 20.3212 15.6478 18.1512 17.8179C15.9811 19.988 14.762 22.9312 14.762 26.0001Z" stroke="#E59CFF" stroke-width="2.61818" stroke-linecap="round" stroke-linejoin="round"/>
</svg>
