<svg width="28" height="28" viewBox="0 0 28 28" fill="none" xmlns="http://www.w3.org/2000/svg">
<path d="M4.19997 10.5H23.8M4.19997 17.5H23.8M13.4166 3.5C11.4512 6.64955 10.4092 10.2875 10.4092 14C10.4092 17.7125 11.4512 21.3505 13.4166 24.5M14.5833 3.5C16.5488 6.64955 17.5908 10.2875 17.5908 14C17.5908 17.7125 16.5488 21.3505 14.5833 24.5M3.5 14C3.5 15.3789 3.77159 16.7443 4.29926 18.0182C4.82694 19.2921 5.60036 20.4496 6.57538 21.4246C7.55039 22.3996 8.70791 23.1731 9.98182 23.7007C11.2557 24.2284 12.6211 24.5 14 24.5C15.3789 24.5 16.7443 24.2284 18.0182 23.7007C19.2921 23.1731 20.4496 22.3996 21.4246 21.4246C22.3996 20.4496 23.1731 19.2921 23.7007 18.0182C24.2284 16.7443 24.5 15.3789 24.5 14C24.5 11.2152 23.3938 8.54451 21.4246 6.57538C19.4555 4.60625 16.7848 3.5 14 3.5C11.2152 3.5 8.54451 4.60625 6.57538 6.57538C4.60625 8.54451 3.5 11.2152 3.5 14Z" stroke="#E59CFF" stroke-width="2.33333" stroke-linecap="round" stroke-linejoin="round"/>
</svg>
